<svg xmlns="http://www.w3.org/2000/svg" xmlns:xlink="http://www.w3.org/1999/xlink" width="512" zoomAndPan="magnify" viewBox="0 0 384 383.999986" height="512" preserveAspectRatio="xMidYMid meet" version="1.0"><defs><g/><clipPath id="fbbdbadb14"><path d="M 6 0.761719 L 232 0.761719 L 232 280 L 6 280 Z M 6 0.761719 " clip-rule="nonzero"/></clipPath><clipPath id="7639f8989d"><rect x="0" width="238" y="0" height="325"/></clipPath></defs><rect x="-38.4" width="460.8" fill="#ffffff" y="-38.399999" height="460.799983" fill-opacity="1"/><rect x="-38.4" width="460.8" fill="#ffffff" y="-38.399999" height="460.799983" fill-opacity="1"/><g transform="matrix(1, 0, 0, 1, 75, 59)"><g clip-path="url(#7639f8989d)"><g clip-path="url(#fbbdbadb14)"><g fill="#000000" fill-opacity="1"><g transform="translate(0.906483, 279.790597)"><g><path d="M 140.703125 -261.46875 L 140.703125 -279 L 230.78125 -279 L 230.78125 -261.46875 L 217.21875 -261.46875 C 205.53125 -261.46875 197.296875 -255.625 192.515625 -243.9375 L 136.71875 -102.03125 L 136.71875 -33.484375 C 136.71875 -22.847656 142.03125 -17.53125 152.65625 -17.53125 L 177.375 -17.53125 L 177.375 0 L 70.546875 0 L 70.546875 -17.53125 L 95.265625 -17.53125 C 105.890625 -17.53125 111.203125 -22.847656 111.203125 -33.484375 L 111.203125 -97.65625 L 43.84375 -243.9375 C 41.1875 -250.039062 38 -254.488281 34.28125 -257.28125 C 30.5625 -260.070312 25.644531 -261.46875 19.53125 -261.46875 L 5.578125 -261.46875 L 5.578125 -279 L 109.203125 -279 L 109.203125 -261.46875 L 84.09375 -261.46875 C 78.25 -261.46875 74 -259.875 71.34375 -256.6875 C 68.6875 -253.5 68.6875 -248.976562 71.34375 -243.125 L 123.953125 -129.53125 L 128.34375 -129.53125 L 173.375 -243.125 C 175.769531 -249.238281 175.703125 -253.820312 173.171875 -256.875 C 170.648438 -259.9375 166.46875 -261.46875 160.625 -261.46875 Z M 140.703125 -261.46875 "/></g></g></g></g></g></g></svg>